<?xml version="1.0" encoding="UTF-8"?>
<svg width="128pt" height="128pt" version="1.1" viewBox="0 0 128 128" xmlns="http://www.w3.org/2000/svg">
 <path d="m32.418 37.879c3.5 1.8789 7.6797 3.3789 12.34 4.5 1.9805-7.6211 5-13.84 8.6797-17.941-8.3398 2.2188-15.66 6.9805-21.02 13.461z"/>
 <path d="m23.102 62h19.078c0.12109-5.6016 0.69922-10.879 1.6797-15.738-5.2383-1.2383-9.9805-2.9805-13.859-5.1406-4.0586 6.0195-6.5195 13.18-6.8789 20.859z"/>
 <path d="m64 23c-6.3984 0-12.121 8.2188-15.262 20.199 4.8008 0.85938 9.9414 1.3398 15.262 1.3398s10.48-0.48047 15.262-1.3398c-3.1602-11.98-8.8789-20.199-15.262-20.199z"/>
 <path d="m80.18 47.102c-5.1016 0.92188-10.559 1.4414-16.18 1.4414s-11.078-0.51953-16.18-1.4414c-0.94141 4.6016-1.5 9.6406-1.6211 14.902h35.598c-0.12109-5.2617-0.67969-10.301-1.6211-14.902z"/>
 <path d="m47.82 80.898c5.1016-0.92188 10.559-1.4414 16.18-1.4414s11.078 0.51953 16.18 1.4414c0.94141-4.6016 1.5-9.6406 1.6211-14.902h-35.598c0.12109 5.2617 0.67969 10.301 1.6211 14.902z"/>
 <path d="m95.582 37.879c-5.3594-6.4609-12.68-11.219-21.02-13.461 3.6797 4.1016 6.6992 10.34 8.6797 17.941 4.6602-1.1016 8.8398-2.6211 12.34-4.5z"/>
 <path d="m29.98 86.859c3.8984-2.1602 8.6211-3.8789 13.859-5.1406-0.98047-4.8398-1.5586-10.141-1.6797-15.738h-19.078c0.37891 7.6992 2.8203 14.859 6.8789 20.859z"/>
 <path d="m104.9 66h-19.078c-0.12109 5.6016-0.69922 10.879-1.6797 15.738 5.2383 1.2383 9.9805 2.9805 13.859 5.1406 4.0586-6.0195 6.5195-13.18 6.8789-20.859z"/>
 <path d="m53.441 103.58c-3.6797-4.1016-6.6992-10.34-8.6797-17.941-4.6602 1.1016-8.8398 2.6211-12.34 4.5 5.3594 6.4609 12.68 11.219 21.02 13.461z"/>
 <path d="m98.02 41.141c-3.8984 2.1602-8.6211 3.8789-13.859 5.1406 0.98047 4.8398 1.5586 10.141 1.6797 15.738h19.078c-0.37891-7.6992-2.8203-14.859-6.8789-20.859z"/>
 <path d="m95.582 90.121c-3.5-1.8789-7.6797-3.3789-12.34-4.5-1.9805 7.6211-5 13.84-8.6797 17.941 8.3398-2.2188 15.66-6.9805 21.02-13.461z"/>
 <path d="m64 105c6.3984 0 12.121-8.2188 15.262-20.199-4.8008-0.85938-9.9414-1.3398-15.262-1.3398s-10.48 0.48047-15.262 1.3398c3.1602 11.98 8.8789 20.199 15.262 20.199z"/>
 <path d="m93.242 23.461c-0.60156 1.1602-0.89844 2.4414-0.89844 3.7617 0 2.2617 0.87891 4.3789 2.4609 5.9805 1.6016 1.5781 3.7188 2.4609 5.9805 2.4609 2.2617 0 4.3594-0.87891 5.9609-2.4609 3.2812-3.3008 3.2812-8.6406 0-11.941-1.6016-1.6016-3.7188-2.4609-5.9609-2.4609-1.8008 0-3.5195 0.53906-4.9414 1.6016-21.359-15.68-51.16-13.461-70.02 5.4219-8.3789 8.3594-13.66 18.98-15.301 30.742-0.16016 1.0781 0.60156 2.1016 1.6992 2.2383 0.078125 0.019531 0.17969 0.019531 0.28125 0.019531 0.98047 0 1.8398-0.71875 1.9805-1.7188 1.5195-10.859 6.4219-20.719 14.16-28.461 17.398-17.398 44.879-19.5 64.602-5.1797z"/>
 <path d="m12.039 61.199c-1.0781 0.078125-2.0195 0.85938-2.0391 1.9609v0.83984c0 1.1016 0.87891 2 2 2s2-0.89844 2-2v-0.76172c0.019531-1.1016-0.85938-2.0195-1.9609-2.0391z"/>
 <path d="m115.78 69.199c-1.1016-0.17969-2.1016 0.60156-2.2617 1.6992-1.5195 10.859-6.4219 20.699-14.16 28.461-17.398 17.398-44.879 19.5-64.602 5.1797 1.5781-3.1406 1.0586-7.1016-1.5586-9.7383-1.6406-1.6406-3.8008-2.4609-5.9609-2.4609-2.1602 0-4.3203 0.82031-5.9805 2.4609-1.6016 1.6016-2.4609 3.7188-2.4609 5.9805s0.85938 4.3594 2.4609 5.9609c1.6016 1.6016 3.7188 2.4609 5.9609 2.4609 1.8008 0 3.5195-0.53906 4.9414-1.6016 9.4805 6.9805 20.66 10.398 31.801 10.398 13.898 0 27.762-5.3398 38.219-15.82 8.3789-8.3594 13.66-19 15.301-30.742 0.16016-1.0781-0.60156-2.1016-1.6992-2.2383z"/>
 <path d="m116 62c-1.1016 0-2 0.89844-2 2v0.78125c-0.019531 1.1016 0.85938 2.0195 1.9609 2.0195h0.019531c1.1016 0 1.9805-0.87891 2-1.9805v-0.83984c0-1.1016-0.87891-2-2-2z"/>
</svg>
