<?xml version="1.0" encoding="UTF-8"?>
<svg width="128pt" height="128pt" version="1.1" viewBox="0 0 128 128" xmlns="http://www.w3.org/2000/svg">
 <path d="m119.4 59.602c-0.80078-9.6016-4-18.801-9.3984-26.602-0.80078-1.1992-6.1992-7.8008-8.3984-9.8008-9.1992-8.3984-20.801-13.602-33-14.602-1.6016-0.19922-12.199 0.39844-13.801 0.60156-7 1.1992-13.398 3.6016-19.398 7.1992 2.1992 0.60156 4 1.8008 5.8008 3 1.8008-1 3.8008-1.8008 5.6016-2.3984-1 1.3984-2 3.1992-2.8008 5 1.1992 1.1992 2.1992 2.6016 3 4 2-4.8008 4.6016-8.6016 7.3984-11 1.8008-0.39844 3.6016-0.60156 5.1992-0.80078l1.1992 28.398c-4 0-8 0-11.801-0.39844-0.39844 1.3984-1 3-1.8008 4.1992 4.3984 0.39844 9 0.60156 13.801 0.39844l0.60156 15-20.801 0.80078c0-3.1992 0-6.3984 0.19922-9.3984-1.3984 1-3 1.8008-4.6016 2.3984 0 2.3984-0.19922 4.6016 0 7l-22.398 1.2031c0-4 0.39844-7.8008 1.3984-11.398-1.6016-1.3984-3.1992-3-4.3984-5-1.6016 5.3984-2.6016 11-2.6016 16.602 0 0.80078 0.19922 3.6016 0.19922 4.3984 0.80078 9.6016 4 18.801 9.3984 26.602 0.80078 1.1992 6.1992 7.8008 8.3984 9.8008 9.1992 8.3984 20.602 13.398 33 14.602 1.6016 0.19922 12.199-0.19922 13.801-0.60156 8.6016-1.3984 16.398-4.8008 23.398-9.8008-2.1992-0.60156-4.1992-1.3984-6.1992-2.6016-3 1.8008-6.1992 3.3984-9.3984 4.6016 1.6016-2.3984 3.1992-5.1992 4.3984-8.3984 0-0.19922 0-0.19922 0.19922-0.39844-1.1992-1.3984-2.1992-2.8008-3-4.3984-2.3984 6.8008-5.3984 12-9 15.199-1.8008 0.39844-3.3984 0.60156-5.1992 0.80078l-1.1992-28.398c4.6016 0 9.1992 0 13.398 0.60156 0.19922-1.3984 0.60156-3 1-4.3984-4.6016-0.39844-9.6016-0.60156-14.602-0.60156l-0.79297-15.012 20.801-0.80078c0 2.8008 0 5.3984-0.19922 8 1.3984-1.1992 2.8008-2.3984 4.3984-3.1992v-5l22.801-0.80078c0 2.3984-0.19922 4.8008-0.60156 7.1992 1.8008 1.1992 3.3984 2.8008 4.8008 4.6016 0.80078-4 1.3984-8 1.3984-12zm-57.398 6.5977 0.60156 15c-6.6016 0.39844-13.199 1.3984-19 2.8008-1.1992-5.1992-2-11-2.3984-17zm-39.398 25.801c-4.6016-6.8008-7.6016-15-8.3984-23.801l22.602-1c0.39844 6.1992 1.1992 12.199 2.3984 17.801-5 1.3984-9.6016 3.1992-13.602 5.1992-1.2031 0.80078-2.2031 1.1992-3 1.8008zm2.5977 3.6016c4.1992-2.3984 9.1992-4.3984 15-6.1992 1.3984 5.3984 3.3984 10.602 5.6016 15 1.6016 3 3.1992 5.8008 5 8-10.199-2.8008-19.199-8.8008-25.602-16.801zm33.199 18.199c-5.8008-4.3984-10.801-13.602-14-25.398 5.6016-1.3984 11.801-2.1992 18.199-2.6016l1.2031 28.199c-1.8008 0-3.6016 0-5.4023-0.19922zm5.8008-99.801c1.8008 0 3.6016 0 5.1992 0.19922 5.8008 4.3984 10.801 13.602 14 25.398-5.6016 1.3984-11.801 2.1992-18.199 2.6016zm1.8008 47.801-0.60156-15c6.6016-0.39844 13-1.3984 19-2.8008 1.1992 5.1992 2 11 2.3984 17zm16.199-38.199c-1.6016-3-3.1992-5.8008-5-8 10.199 2.8008 19.199 8.8008 25.801 16.801-4.1992 2.3984-9.1992 4.3984-15 6.1992-1.8008-5.4023-3.6016-10.602-5.8008-15zm9 37.199c-0.39844-6.1992-1.1992-12.199-2.3984-17.801 5-1.3984 9.6016-3.1992 13.602-5.1992 1-0.60156 2-1 3-1.6016 4.6016 6.8008 7.6016 15 8.3984 23.801z"/>
 <path d="m28.801 19.398c-9.3984 0-17 7.6016-17 17 0 9.3984 7.6016 17 17 17 9.3984 0 17-7.6016 17-17 0-9.3984-7.6016-17-17-17zm8.3984 11.602h-4c-0.19922 0-0.19922 0-0.39844-0.19922-0.80078-1.6016-2.6016-2.3984-4.1992-2.6016-1.1992 0-2.6016 0.60156-3.1992 1.3984-0.80078 1.1992-0.39844 2.3984 0.39844 3.1992 1.8008 2 4.6016 2 7 2.6016 1.3984 0.39844 2.3984 1.1992 3.1992 2 1.3984 1.6016 1.3984 4 0.60156 5.8008-1 2.1992-3.1992 3.6016-5.6016 4h-0.39844v1.6016c0 0.39844-0.39844 0.80078-0.80078 0.80078h-1.3984c-0.39844 0-0.80078-0.39844-0.80078-0.80078v-1.3984h-0.39844c-3.3984 0-5.8008-3-7.1992-5.6016-0.19922-0.19922 0-0.39844 0.39844-0.39844l3.5977-0.003906c0.19922 0 0.19922 0 0.39844 0.19922 1 2.6016 5 3.8008 7.1992 1.8008 1-0.80078 1.1992-2 0.60156-3.1992-1.1992-2-3.6016-2.3984-5.6016-2.8008-1.6016-0.19922-3.3984-0.80078-4.6016-2-1.1992-1.1992-1.8008-2.8008-1.6016-4.3984 0.19922-1.6016 1-3.1992 2.3984-4.1992 1.1992-1 2.3984-1.6016 3.8008-1.8008 0.19922 0 0.39844 0 0.39844-0.19922v-0.60156-0.80078c0-0.39844 0.39844-0.80078 0.80078-0.80078h1.1992c0.39844 0 0.80078 0.39844 0.80078 0.80078v1.3984h0.39844c2.1992 0.39844 4.3984 1.3984 5.8008 3 0.60156 0.60156 1.1992 1.3984 1.6016 2.3984 0.007812 0.40625-0.19531 0.80469-0.39453 0.80469z"/>
 <path d="m101.4 71.602c-9.3984 0-17 7.6016-17 17 0 9.3984 7.6016 17 17 17 9.3984 0 17-7.6016 17-17 0-9.4023-7.5977-17-17-17zm8.2031 11.598h-4c-0.19922 0-0.19922 0-0.39844-0.19922-0.80078-1.6016-2.6016-2.3984-4.1992-2.6016-1.1992 0-2.6016 0.60156-3.1992 1.3984-0.80078 1.1992-0.39844 2.3984 0.39844 3.1992 1.8008 2 4.6016 2 7 2.6016 1.3984 0.39844 2.3984 1.1992 3.1992 2 1.3984 1.6016 1.3984 4 0.60156 5.8008-1 2.1992-3.1992 3.6016-5.6016 4h-0.39844v1.6016c0 0.39844-0.39844 0.80078-0.80078 0.80078h-1.3984c-0.39844 0-0.80078-0.39844-0.80078-0.80078v-1.3984h-0.39844c-3.3984 0-5.8008-3-7.1992-5.6016-0.19922-0.19922 0-0.39844 0.39844-0.39844h3.3984c0.19922 0 0.19922 0 0.39844 0.19922 1 2.6016 5 3.8008 7.1992 1.8008 1-0.80078 1.1992-2 0.60156-3.1992-1.1992-2-3.6016-2.3984-5.6016-2.8008-1.6016-0.19922-3.3984-0.80078-4.6016-2-1.1992-1.1992-1.8008-2.8008-1.6016-4.3984 0.19922-1.6016 1-3.1992 2.3984-4.1992 1.1992-1 2.3984-1.6016 3.8008-1.8008 0.19922 0 0.39844 0 0.39844-0.19922v-0.60156-0.80078c0-0.39844 0.39844-0.80078 0.80078-0.80078h1.1992c0.39844 0 0.80078 0.39844 0.80078 0.80078v1.3984h0.39844c2.1992 0.39844 4.3984 1.3984 5.8008 3 0.60156 0.60156 1.1992 1.3984 1.6016 2.3984 0.20312 0.60156 0.20312 0.80078-0.19531 0.80078z"/>
</svg>
